<?xml version="1.0" encoding="utf-8"?>
<svg viewBox="12.5 110.30000305175781 78.10000610351562 78.09999084472656" width="78.10000610351562" height="78.09999084472656" xmlns="http://www.w3.org/2000/svg"><g transform="matrix(1, 0, 0, 1, 0, 0)">
		<g>
			<path d="M40,114.7v31.5c0,0-0.1,3,1,4.4l-20.5-20.3C20.5,130.2,26.5,119.1,40,114.7z" style="fill: rgb(204, 204, 204); opacity: 1;"/>
		</g>
		<g>
			<path d="M18.9,133l22.3,22.3c0,0,2.1,2.1,3.8,2.4l-28.8,0.1C16.1,157.7,12.5,145.7,18.9,133z" style="fill: rgb(204, 204, 204); opacity: 1;"/>
		</g>
		<g>
			<path d="M16.9,160.9h31.5c0,0,3,0.1,4.4-1l-20.3,20.5C32.4,180.4,21.4,174.4,16.9,160.9z" style="fill: rgb(204, 204, 204); opacity: 1;"/>
		</g>
		<g>
			<path d="M35.2,182l22.3-22.3c0,0,2.1-2.1,2.4-3.8l0.1,28.8C60,184.8,47.9,188.4,35.2,182z" style="fill: rgb(204, 204, 204); opacity: 1;"/>
		</g>
		<g>
			<path d="M63.1,184v-31.5c0,0,0.1-3-1-4.4l20.5,20.3C82.6,168.4,76.6,179.5,63.1,184z" style="fill: rgb(204, 204, 204); opacity: 1;"/>
		</g>
		<g>
			<path d="M84.2,165.6L62,143.4c0,0-2.1-2.1-3.8-2.4l28.8-0.1C87.1,140.9,90.6,152.9,84.2,165.6z" style="fill: rgb(204, 204, 204); opacity: 1;"/>
		</g>
		<g>
			<path d="M86.2,137.8H54.7c0,0-3,0-4.4,1l20.3-20.5C70.7,118.2,81.7,124.3,86.2,137.8z" style="fill: rgb(204, 204, 204); opacity: 1;"/>
		</g>
		<path d="M67.9,116.6l-22.4,22.3c0,0-2.1,2.1-2.4,3.8l0-28.8C43.1,113.8,55.2,110.3,67.9,116.6z" style="fill: rgb(204, 204, 204); opacity: 1;"/>
	</g></svg>