<?xml version="1.0" encoding="UTF-8"?>
<svg xmlns="http://www.w3.org/2000/svg" xmlns:xlink="http://www.w3.org/1999/xlink" width="3943" height="2742" viewBox="0 0 3943 2742">

<path fill-rule="evenodd" fill="rgb(100%, 79.6875%, 64.646912%)" fill-opacity="1" d="M 2649.039062 1886.089844 C 2728.25 1886.089844 2792.46875 1722.558594 2792.46875 1520.839844 C 2792.46875 1319.121094 2728.25 1155.589844 2649.039062 1155.589844 C 2569.820312 1155.589844 2505.601562 1319.121094 2505.601562 1520.839844 C 2505.601562 1722.558594 2569.820312 1886.089844 2649.039062 1886.089844 "/>
<path fill-rule="evenodd" fill="rgb(100%, 70.117188%, 59.568787%)" fill-opacity="1" d="M 1949.46875 1250.238281 C 2043.359375 1180.960938 2042.421875 1182.71875 2157.75 1170.121094 C 2267.761719 1158.109375 2282.921875 929.550781 2106.269531 880.480469 C 1901.929688 823.71875 1927.488281 983.871094 1938.96875 1123.011719 L 1949.46875 1250.238281 "/>
<path fill-rule="evenodd" fill="rgb(48.631287%, 44.309998%, 41.184998%)" fill-opacity="1" d="M 1609.078125 1041.480469 C 1591.921875 1073.171875 1486.5 1035.960938 1433.300781 1030.160156 C 1374.839844 1023.800781 1325.371094 1042.480469 1335.148438 968.410156 C 1343.710938 903.621094 1506.398438 924.699219 1550.921875 945.410156 C 1592.101562 963.011719 1631.191406 976.011719 1609.078125 1041.480469 "/>
<path fill-rule="evenodd" fill="rgb(25.488281%, 39.988708%, 40.380859%)" fill-opacity="1" d="M 2160.660156 1226.28125 C 2067.988281 1233.898438 1992.898438 1309.539062 1979.96875 1397.941406 C 1930.328125 1737.378906 2288.890625 1798.777344 2258.96875 1724.609375 C 2230.921875 1655.070312 2215.601562 1593.300781 2214.378906 1505.121094 C 2212.921875 1400.46875 2229.628906 1341.441406 2271.5 1265.609375 C 2301.03125 1212.148438 2213.769531 1221.910156 2160.660156 1226.28125 "/>
<path fill-rule="evenodd" fill="rgb(48.631287%, 56.054688%, 53.318787%)" fill-opacity="1" d="M 1530.75 1174.109375 C 1608.980469 1141.988281 1856.460938 1072.730469 1857.699219 1212.019531 C 1860.050781 1315.441406 1866.890625 1683.710938 1825.328125 1785.199219 C 1772.710938 1913.722656 1518.328125 1960.183594 1483.148438 1903.199219 C 1429.429688 1817.675781 1402.339844 1226.828125 1530.75 1174.109375 "/>
<path fill="none" stroke-width="140" stroke-linecap="round" stroke-linejoin="miter" stroke="rgb(13.729858%, 12.159729%, 12.548828%)" stroke-opacity="1" stroke-miterlimit="22.9256" d="M 26667.695312 8718.90625 C 27561.992188 9415.234375 27687.695312 11007.1875 27697.109375 12213.515625 C 27709.882812 13856.71875 27026.09375 17319.6875 25637.382812 15603.515625 C 24272.617188 13916.71875 24955.390625 6988.125 26747.382812 9140.429688 C 27899.296875 10523.90625 27561.210938 15050.585938 26391.71875 15857.1875 C 25515.390625 16461.484375 24318.90625 16161.40625 23719.414062 15740 C 22478.984375 14868.085938 21576.210938 8588.75 25172.382812 8628.90625 C 25791.289062 8635.78125 25006.09375 9481.484375 23311.289062 9374.375 C 20979.21875 9227.03125 20887.617188 12096.210938 21265.390625 13636.992188 C 21499.609375 14591.914062 22350 15898.984375 22889.296875 15535.195312 C 23557.5 15047.890625 21408.515625 15714.609375 20676.914062 14506.601562 C 19949.609375 13306.015625 19806.914062 9675.546875 21048.789062 9802.96875 C 22146.601562 9915.585938 18539.609375 10366.40625 19612.8125 13843.90625 C 20347.109375 16223.28125 22369.882812 14800 22350.3125 16311.484375 C 22330.898438 17800.390625 21988.398438 17826.40625 21021.289062 18239.21875 C 20229.882812 18576.914062 19078.984375 18802.617188 19010 17418.90625 C 18924.492188 15705.117188 18942.695312 12934.6875 18910.117188 10531.289062 C 18887.382812 8856.25 21963.398438 9201.40625 20737.109375 9566.171875 C 20230.507812 9703.828125 19297.5 9407.578125 18644.414062 9196.328125 C 18039.609375 9000.703125 12645.585938 7929.6875 12341.914062 8838.4375 C 11658.515625 10173.710938 12128.984375 15619.21875 12490.117188 16543.789062 C 12755.117188 17222.1875 13428.203125 16510.195312 13404.6875 17178.90625 C 13342.890625 18933.59375 19128.710938 16773.515625 14572.5 17413.789062 C 13556.484375 17556.484375 13621.992188 16911.015625 14589.6875 16788.90625 C 20187.695312 16082.695312 17897.304688 17350.3125 18897.304688 18238.789062 C 19718.515625 18968.398438 18754.492188 18688.59375 17688.515625 18657.304688 C 17063.984375 18638.984375 16350.78125 18703.007812 16036.796875 18073.007812 " transform="matrix(0.1, 0, 0, -0.1, 0, 2742)"/>
<path fill-rule="evenodd" fill="rgb(48.631287%, 56.054688%, 53.318787%)" fill-opacity="1" d="M 2480.769531 1777.710938 C 2489.820312 1744.601562 2469.25 1608.628906 2469.25 1547.148438 C 2469.25 1441.328125 2456.960938 1324.679688 2494.980469 1224.640625 C 2539.230469 1108.179688 2350.449219 1198.640625 2325.738281 1334.960938 C 2301.148438 1470.679688 2332.21875 1710.578125 2475.011719 1770.03125 L 2480.769531 1777.710938 "/>
<path fill-rule="evenodd" fill="rgb(100%, 89.84375%, 65.429688%)" fill-opacity="1" d="M 2592.820312 1231.449219 C 2544.710938 1231.449219 2505.710938 1364.871094 2505.710938 1529.449219 C 2505.710938 1694.03125 2544.710938 1827.449219 2592.820312 1827.449219 C 2640.929688 1827.449219 2679.929688 1694.03125 2679.929688 1529.449219 C 2679.929688 1364.871094 2640.929688 1231.449219 2592.820312 1231.449219 "/>
<path fill-rule="evenodd" fill="rgb(100%, 89.84375%, 65.429688%)" fill-opacity="1" d="M 1995.96875 1107.109375 C 2009.121094 1113.179688 2086.691406 1114.050781 2119.25 1121.941406 C 2165.25 1133.078125 2172.980469 1080.96875 2125.570312 1064.371094 C 2084.78125 1050.078125 2020.941406 1023.140625 1993.800781 1075.710938 C 1990.789062 1081.53125 1991.859375 1093.761719 1991.96875 1100.109375 L 1995.96875 1107.109375 "/>
</svg>
